<svg width="96" height="71" viewBox="0 0 96 71" fill="none" xmlns="http://www.w3.org/2000/svg">
<rect width="96" height="71" fill="#474646"/>
<rect width="1440" height="1024" transform="translate(-353 -379)" fill="#D8CACA"/>
<path d="M84 5.9165C82.9391 5.9165 81.9217 6.22818 81.1716 6.78298C80.4214 7.33777 80 8.09024 80 8.87484V14.7915H72V8.87484C72 8.09024 71.5786 7.33777 70.8284 6.78298C70.0783 6.22818 69.0609 5.9165 68 5.9165C66.9391 5.9165 65.9217 6.22818 65.1716 6.78298C64.4214 7.33777 64 8.09024 64 8.87484V11.8332H32V8.87484C32 8.09024 31.5786 7.33777 30.8284 6.78298C30.0783 6.22818 29.0609 5.9165 28 5.9165C26.9391 5.9165 25.9217 6.22818 25.1716 6.78298C24.4214 7.33777 24 8.09024 24 8.87484V14.7915H16V8.87484C16 8.09024 15.5786 7.33777 14.8284 6.78298C14.0783 6.22818 13.0609 5.9165 12 5.9165C10.9391 5.9165 9.92172 6.22818 9.17157 6.78298C8.42143 7.33777 8 8.09024 8 8.87484V62.1248C8 62.9094 8.42143 63.6619 9.17157 64.2167C9.92172 64.7715 10.9391 65.0832 12 65.0832C13.0609 65.0832 14.0783 64.7715 14.8284 64.2167C15.5786 63.6619 16 62.9094 16 62.1248V56.2082H24V62.1248C24 62.9094 24.4214 63.6619 25.1716 64.2167C25.9217 64.7715 26.9391 65.0832 28 65.0832C29.0609 65.0832 30.0783 64.7715 30.8284 64.2167C31.5786 63.6619 32 62.9094 32 62.1248V59.1665H64V62.1248C64 62.9094 64.4214 63.6619 65.1716 64.2167C65.9217 64.7715 66.9391 65.0832 68 65.0832C69.0609 65.0832 70.0783 64.7715 70.8284 64.2167C71.5786 63.6619 72 62.9094 72 62.1248V56.2082H80V62.1248C80 62.9094 80.4214 63.6619 81.1716 64.2167C81.9217 64.7715 82.9391 65.0832 84 65.0832C85.0609 65.0832 86.0783 64.7715 86.8284 64.2167C87.5786 63.6619 88 62.9094 88 62.1248V8.87484C88 8.09024 87.5786 7.33777 86.8284 6.78298C86.0783 6.22818 85.0609 5.9165 84 5.9165V5.9165ZM24 50.2915H16V44.3748H24V50.2915ZM24 38.4582H16V32.5415H24V38.4582ZM24 26.6248H16V20.7082H24V26.6248ZM64 53.2498H32V38.4582H64V53.2498ZM64 32.5415H32V17.7498H64V32.5415ZM80 50.2915H72V44.3748H80V50.2915ZM80 38.4582H72V32.5415H80V38.4582ZM80 26.6248H72V20.7082H80V26.6248Z" fill="#FFB400"/>
</svg>
