<svg width="97" height="76" viewBox="0 0 97 76" fill="none" xmlns="http://www.w3.org/2000/svg">
<rect width="97" height="76" fill="#474646"/>
<rect width="1440" height="1024" transform="translate(-451 -385)" fill="#D8CACA"/>
<path d="M87.0171 22.6417C86.4027 22.3637 85.7058 22.2174 84.9963 22.2174C84.2868 22.2174 83.5899 22.3637 82.9755 22.6417L68.7084 28.1517C68.5932 25.693 67.2651 23.3652 65.0036 21.6582C62.7421 19.9513 59.7236 18.9983 56.5834 19H20.2084C16.9926 19 13.9086 20.0009 11.6347 21.7825C9.36083 23.5641 8.08337 25.9804 8.08337 28.5V47.5C8.08337 50.0196 9.36083 52.4359 11.6347 54.2175C13.9086 55.9991 16.9926 57 20.2084 57H56.5834C59.7236 57.0017 62.7421 56.0487 65.0036 54.3418C67.2651 52.6348 68.5932 50.307 68.7084 47.8483L83.0967 53.485C83.6476 53.7063 84.256 53.8255 84.875 53.8333C85.6317 53.8352 86.3739 53.6707 87.0171 53.3583C87.5996 53.0731 88.0797 52.6763 88.412 52.2053C88.7444 51.7344 88.9181 51.2048 88.9167 50.6667V25.3333C88.9181 24.7952 88.7444 24.2656 88.412 23.7947C88.0797 23.3237 87.5996 22.9269 87.0171 22.6417V22.6417ZM60.625 47.5C60.625 48.3399 60.1992 49.1453 59.4413 49.7392C58.6833 50.333 57.6553 50.6667 56.5834 50.6667H20.2084C19.1365 50.6667 18.1084 50.333 17.3505 49.7392C16.5925 49.1453 16.1667 48.3399 16.1667 47.5V28.5C16.1667 27.6601 16.5925 26.8547 17.3505 26.2608C18.1084 25.667 19.1365 25.3333 20.2084 25.3333H56.5834C57.6553 25.3333 58.6833 25.667 59.4413 26.2608C60.1992 26.8547 60.625 27.6601 60.625 28.5V47.5ZM80.8334 45.5367L68.7084 40.7867V35.2133L80.8334 30.4633V45.5367Z" fill="#FFB400"/>
</svg>
