<svg width="119" height="58" viewBox="0 0 119 58" fill="none" xmlns="http://www.w3.org/2000/svg">
<rect width="119" height="58" fill="#474646"/>
<rect width="1440" height="1024" transform="translate(-443 -515)" fill="#D8CACA"/>
<g filter="url(#filter0_ddd_0_1)">
<rect x="9" y="3" width="101" height="40" rx="20" fill="black" fill-opacity="0.1" shape-rendering="crispEdges"/>
<rect x="9" y="3" width="101" height="40" rx="20" fill="url(#paint0_linear_0_1)" fill-opacity="0.05" shape-rendering="crispEdges"/>
<path d="M30.0043 28V17.8182H33.8224C34.6046 17.8182 35.2609 17.964 35.7912 18.2557C36.3248 18.5473 36.7275 18.9484 36.9993 19.4588C37.2744 19.9659 37.4119 20.5426 37.4119 21.1889C37.4119 21.8419 37.2744 22.4219 36.9993 22.929C36.7242 23.4361 36.3182 23.8355 35.7812 24.1271C35.2443 24.4155 34.5831 24.5597 33.7976 24.5597H31.267V23.0433H33.549C34.0064 23.0433 34.3809 22.9638 34.6726 22.8047C34.9643 22.6456 35.1797 22.4268 35.3189 22.1484C35.4614 21.87 35.5327 21.5502 35.5327 21.1889C35.5327 20.8277 35.4614 20.5095 35.3189 20.2344C35.1797 19.9593 34.9626 19.7455 34.6676 19.593C34.3759 19.4373 33.9998 19.3594 33.5391 19.3594H31.8487V28H30.0043ZM38.9345 28V20.3636H40.6795V21.6364H40.7591C40.8983 21.1955 41.1369 20.8558 41.475 20.6172C41.8163 20.3752 42.2058 20.2543 42.6433 20.2543C42.7427 20.2543 42.8538 20.2592 42.9764 20.2692C43.1023 20.2758 43.2067 20.2874 43.2896 20.304V21.9595C43.2134 21.933 43.0924 21.9098 42.9267 21.8899C42.7643 21.8667 42.6068 21.8551 42.4544 21.8551C42.1262 21.8551 41.8313 21.9264 41.5694 22.0689C41.3109 22.2081 41.1071 22.402 40.9579 22.6506C40.8088 22.8991 40.7342 23.1858 40.7342 23.5107V28H38.9345ZM47.5018 28.1491C46.756 28.1491 46.1097 27.9851 45.5629 27.657C45.016 27.3288 44.5917 26.8698 44.2901 26.2798C43.9918 25.6899 43.8427 25.0005 43.8427 24.2116C43.8427 23.4228 43.9918 22.7318 44.2901 22.1385C44.5917 21.5452 45.016 21.0845 45.5629 20.7564C46.1097 20.4283 46.756 20.2642 47.5018 20.2642C48.2475 20.2642 48.8938 20.4283 49.4407 20.7564C49.9876 21.0845 50.4102 21.5452 50.7085 22.1385C51.0101 22.7318 51.1609 23.4228 51.1609 24.2116C51.1609 25.0005 51.0101 25.6899 50.7085 26.2798C50.4102 26.8698 49.9876 27.3288 49.4407 27.657C48.8938 27.9851 48.2475 28.1491 47.5018 28.1491ZM47.5117 26.7074C47.9161 26.7074 48.2541 26.5964 48.5259 26.3743C48.7977 26.1489 48.9999 25.8473 49.1325 25.4695C49.2683 25.0916 49.3363 24.6707 49.3363 24.2067C49.3363 23.7393 49.2683 23.3168 49.1325 22.9389C48.9999 22.5578 48.7977 22.2545 48.5259 22.0291C48.2541 21.8037 47.9161 21.6911 47.5117 21.6911C47.0974 21.6911 46.7527 21.8037 46.4776 22.0291C46.2058 22.2545 46.002 22.5578 45.8661 22.9389C45.7335 23.3168 45.6673 23.7393 45.6673 24.2067C45.6673 24.6707 45.7335 25.0916 45.8661 25.4695C46.002 25.8473 46.2058 26.1489 46.4776 26.3743C46.7527 26.5964 47.0974 26.7074 47.5117 26.7074ZM52.6884 20.3636H54.4881V28.4375C54.4881 28.9877 54.3837 29.4418 54.1749 29.7997C53.9661 30.1577 53.6645 30.4245 53.2701 30.6001C52.8757 30.7758 52.3967 30.8636 51.8333 30.8636C51.767 30.8636 51.7057 30.862 51.6493 30.8587C51.593 30.8587 51.5317 30.857 51.4654 30.8537V29.3871C51.5151 29.3904 51.5598 29.392 51.5996 29.392C51.6394 29.3954 51.6808 29.397 51.7239 29.397C52.0686 29.397 52.3155 29.3125 52.4647 29.1435C52.6138 28.9777 52.6884 28.7341 52.6884 28.4126V20.3636ZM53.5833 19.2798C53.2949 19.2798 53.048 19.1854 52.8425 18.9964C52.6403 18.8042 52.5392 18.5739 52.5392 18.3054C52.5392 18.0336 52.6403 17.8033 52.8425 17.6143C53.048 17.4221 53.2949 17.326 53.5833 17.326C53.8683 17.326 54.1119 17.4221 54.3141 17.6143C54.5196 17.8033 54.6223 18.0336 54.6223 18.3054C54.6223 18.5739 54.5196 18.8042 54.3141 18.9964C54.1119 19.1854 53.8683 19.2798 53.5833 19.2798ZM59.7195 28.1491C58.9538 28.1491 58.2926 27.9901 57.7358 27.6719C57.1823 27.3504 56.7564 26.8963 56.4581 26.3097C56.1598 25.7197 56.0107 25.0253 56.0107 24.2266C56.0107 23.4411 56.1598 22.7517 56.4581 22.1584C56.7597 21.5618 57.1806 21.0978 57.7209 20.7663C58.2611 20.4316 58.8958 20.2642 59.625 20.2642C60.0956 20.2642 60.5398 20.3404 60.9574 20.4929C61.3783 20.642 61.7495 20.8741 62.071 21.1889C62.3958 21.5038 62.651 21.9048 62.8366 22.392C63.0223 22.8759 63.1151 23.4527 63.1151 24.1222V24.674H56.8558V23.4609H61.3899C61.3866 23.1162 61.312 22.8097 61.1662 22.5412C61.0204 22.2694 60.8165 22.0556 60.5547 21.8999C60.2962 21.7441 59.9946 21.6662 59.6499 21.6662C59.282 21.6662 58.9588 21.7557 58.6804 21.9347C58.402 22.1103 58.1849 22.3423 58.0291 22.6307C57.8767 22.9157 57.7988 23.2289 57.7955 23.5703V24.6293C57.7955 25.0734 57.8767 25.4545 58.0391 25.7727C58.2015 26.0876 58.4285 26.3295 58.7202 26.4986C59.0118 26.6643 59.3532 26.7472 59.7443 26.7472C60.0062 26.7472 60.2431 26.7107 60.4553 26.6378C60.6674 26.5616 60.8513 26.4505 61.0071 26.3047C61.1629 26.1589 61.2805 25.9782 61.3601 25.7628L63.0405 25.9517C62.9344 26.3958 62.7322 26.7836 62.4339 27.1151C62.139 27.4432 61.7611 27.6984 61.3004 27.8807C60.8397 28.0597 60.3127 28.1491 59.7195 28.1491ZM67.9686 28.1491C67.2063 28.1491 66.5517 27.9818 66.0048 27.647C65.4612 27.3123 65.042 26.8499 64.747 26.2599C64.4553 25.6667 64.3095 24.9839 64.3095 24.2116C64.3095 23.4361 64.4586 22.7517 64.7569 22.1584C65.0552 21.5618 65.4761 21.0978 66.0197 20.7663C66.5666 20.4316 67.2129 20.2642 67.9586 20.2642C68.5784 20.2642 69.127 20.3786 69.6042 20.6072C70.0848 20.8326 70.4676 21.1525 70.7527 21.5668C71.0377 21.9777 71.2001 22.4583 71.2399 23.0085H69.5197C69.4501 22.6406 69.2844 22.334 69.0225 22.0888C68.764 21.8402 68.4177 21.7159 67.9835 21.7159C67.6156 21.7159 67.2924 21.8153 67.014 22.0142C66.7356 22.2098 66.5185 22.4915 66.3627 22.8594C66.2103 23.2273 66.1341 23.6681 66.1341 24.1818C66.1341 24.7022 66.2103 25.1496 66.3627 25.5241C66.5152 25.8954 66.729 26.1821 67.0041 26.3842C67.2825 26.5831 67.609 26.6825 67.9835 26.6825C68.2486 26.6825 68.4856 26.6328 68.6944 26.5334C68.9065 26.4306 69.0839 26.2831 69.2264 26.0909C69.3689 25.8987 69.4667 25.665 69.5197 25.3899H71.2399C71.1968 25.9302 71.0377 26.4091 70.7626 26.8267C70.4875 27.241 70.113 27.5658 69.639 27.8011C69.1651 28.0331 68.6083 28.1491 67.9686 28.1491ZM76.5309 20.3636V21.7557H72.141V20.3636H76.5309ZM73.2248 18.5341H75.0245V25.7031C75.0245 25.9451 75.061 26.1307 75.1339 26.2599C75.2101 26.3859 75.3095 26.4721 75.4322 26.5185C75.5548 26.5649 75.6907 26.5881 75.8398 26.5881C75.9525 26.5881 76.0553 26.5798 76.1481 26.5632C76.2442 26.5466 76.3171 26.5317 76.3668 26.5185L76.6701 27.9254C76.574 27.9586 76.4364 27.995 76.2575 28.0348C76.0818 28.0746 75.8664 28.0978 75.6112 28.1044C75.1604 28.1177 74.7544 28.0497 74.3931 27.9006C74.0318 27.7481 73.7451 27.5128 73.533 27.1946C73.3242 26.8764 73.2215 26.4787 73.2248 26.0014V18.5341ZM81.4888 28V26.6676L85.0236 23.2024C85.3617 22.861 85.6434 22.5578 85.8688 22.2926C86.0942 22.0275 86.2632 21.7706 86.3759 21.522C86.4886 21.2734 86.5449 21.0083 86.5449 20.7266C86.5449 20.4051 86.472 20.13 86.3262 19.9013C86.1803 19.6693 85.9798 19.4903 85.7246 19.3643C85.4694 19.2384 85.1794 19.1754 84.8546 19.1754C84.5198 19.1754 84.2265 19.245 83.9746 19.3842C83.7227 19.5201 83.5272 19.714 83.388 19.9659C83.2521 20.2178 83.1841 20.5178 83.1841 20.8658H81.4292C81.4292 20.2195 81.5766 19.6577 81.8716 19.1804C82.1666 18.7031 82.5726 18.3336 83.0897 18.0717C83.61 17.8099 84.2066 17.679 84.8794 17.679C85.5622 17.679 86.1621 17.8066 86.6792 18.0618C87.1962 18.317 87.5972 18.6667 87.8823 19.1108C88.1706 19.5549 88.3148 20.062 88.3148 20.6321C88.3148 21.0133 88.2419 21.3878 88.0961 21.7557C87.9502 22.1236 87.6934 22.5312 87.3255 22.9787C86.9609 23.4261 86.4488 23.968 85.7892 24.6044L84.0343 26.3892V26.4588H88.4689V28H81.4888Z" fill="#151618"/>
<rect x="9.5" y="3.5" width="100" height="39" rx="19.5" stroke="url(#paint1_linear_0_1)" stroke-opacity="0.1" shape-rendering="crispEdges"/>
</g>
<defs>
<filter id="filter0_ddd_0_1" x="0" y="0" width="119" height="58" filterUnits="userSpaceOnUse" color-interpolation-filters="sRGB">
<feFlood flood-opacity="0" result="BackgroundImageFix"/>
<feColorMatrix in="SourceAlpha" type="matrix" values="0 0 0 0 0 0 0 0 0 0 0 0 0 0 0 0 0 0 127 0" result="hardAlpha"/>
<feOffset dy="6"/>
<feGaussianBlur stdDeviation="4.5"/>
<feComposite in2="hardAlpha" operator="out"/>
<feColorMatrix type="matrix" values="0 0 0 0 0 0 0 0 0 0 0 0 0 0 0 0 0 0 0.6 0"/>
<feBlend mode="normal" in2="BackgroundImageFix" result="effect1_dropShadow_0_1"/>
<feColorMatrix in="SourceAlpha" type="matrix" values="0 0 0 0 0 0 0 0 0 0 0 0 0 0 0 0 0 0 127 0" result="hardAlpha"/>
<feOffset dy="2"/>
<feGaussianBlur stdDeviation="1.5"/>
<feComposite in2="hardAlpha" operator="out"/>
<feColorMatrix type="matrix" values="0 0 0 0 0 0 0 0 0 0 0 0 0 0 0 0 0 0 0.12 0"/>
<feBlend mode="normal" in2="effect1_dropShadow_0_1" result="effect2_dropShadow_0_1"/>
<feColorMatrix in="SourceAlpha" type="matrix" values="0 0 0 0 0 0 0 0 0 0 0 0 0 0 0 0 0 0 127 0" result="hardAlpha"/>
<feOffset dy="1"/>
<feGaussianBlur stdDeviation="0.5"/>
<feComposite in2="hardAlpha" operator="out"/>
<feColorMatrix type="matrix" values="0 0 0 0 0 0 0 0 0 0 0 0 0 0 0 0 0 0 0.04 0"/>
<feBlend mode="normal" in2="effect2_dropShadow_0_1" result="effect3_dropShadow_0_1"/>
<feBlend mode="normal" in="SourceGraphic" in2="effect3_dropShadow_0_1" result="shape"/>
</filter>
<linearGradient id="paint0_linear_0_1" x1="59.5" y1="3" x2="59.5" y2="43" gradientUnits="userSpaceOnUse">
<stop stop-color="white"/>
<stop offset="1" stop-color="white" stop-opacity="0"/>
</linearGradient>
<linearGradient id="paint1_linear_0_1" x1="59.5" y1="3" x2="59.5" y2="43" gradientUnits="userSpaceOnUse">
<stop/>
<stop offset="1" stop-color="white" stop-opacity="0"/>
</linearGradient>
</defs>
</svg>
