<svg width="690" height="808" viewBox="0 0 690 808" fill="none" xmlns="http://www.w3.org/2000/svg">
<path d="M377.234 18.7496C377.234 20.7818 375.145 22.7494 372.133 22.7494C369.121 22.7494 367.032 20.7818 367.032 18.7496C367.032 16.7174 369.121 14.7498 372.133 14.7498C375.145 14.7498 377.234 16.7174 377.234 18.7496Z" stroke="#05FF00" stroke-opacity="0.8" stroke-width="2"/>
<path d="M383.21 339.263C383.21 341.295 381.122 343.263 378.11 343.263C375.097 343.263 373.009 341.295 373.009 339.263C373.009 337.231 375.097 335.263 378.11 335.263C381.122 335.263 383.21 337.231 383.21 339.263Z" stroke="#05FF00" stroke-opacity="0.8" stroke-width="2"/>
<path d="M523.212 566.928C521.907 567.227 520.555 567.144 519.449 566.81C518.342 566.476 517.556 565.921 517.17 565.285C516.785 564.649 516.788 563.913 517.269 563.215C517.75 562.518 518.683 561.911 519.988 561.612C521.292 561.314 522.644 561.397 523.751 561.731C524.858 562.065 525.643 562.62 526.029 563.256C526.415 563.892 526.411 564.627 525.93 565.325C525.45 566.023 524.516 566.63 523.212 566.928Z" stroke="#05FF00" stroke-opacity="0.8" stroke-width="2"/>
<path d="M47.8042 249.992C47.8042 252.024 45.7159 253.992 42.7037 253.992C39.6915 253.992 37.6031 252.024 37.6031 249.992C37.6031 247.96 39.6915 245.992 42.7037 245.992C45.7159 245.992 47.8042 247.96 47.8042 249.992Z" stroke="#05FF00" stroke-opacity="0.8" stroke-width="2"/>
<path d="M53.7809 570.505C53.7809 572.537 51.6926 574.505 48.6804 574.505C45.6682 574.505 43.5798 572.537 43.5798 570.505C43.5798 568.473 45.6682 566.505 48.6804 566.505C51.6926 566.505 53.7809 568.473 53.7809 570.505Z" stroke="#05FF00" stroke-opacity="0.8" stroke-width="2"/>
<path d="M158.235 434.462C156.93 434.761 155.578 434.678 154.472 434.343C153.365 434.009 152.579 433.455 152.193 432.818C151.808 432.182 151.811 431.447 152.292 430.749C152.773 430.051 153.706 429.445 155.011 429.146C156.315 428.847 157.667 428.93 158.774 429.265C159.881 429.599 160.666 430.153 161.052 430.79C161.438 431.426 161.434 432.161 160.953 432.859C160.472 433.557 159.539 434.163 158.235 434.462Z" stroke="#05FF00" stroke-opacity="0.8" stroke-width="2"/>
<path d="M406.105 223.72C406.105 225.752 404.017 227.72 401.005 227.72C397.993 227.72 395.904 225.752 395.904 223.72C395.904 221.688 397.993 219.72 401.005 219.72C404.017 219.72 406.105 221.688 406.105 223.72Z" stroke="#FFB400" stroke-opacity="0.8" stroke-width="2"/>
<path d="M412.082 544.233C412.082 546.265 409.994 548.233 406.982 548.233C403.969 548.233 401.881 546.265 401.881 544.233C401.881 542.201 403.969 540.233 406.982 540.233C409.994 540.233 412.082 542.201 412.082 544.233Z" stroke="#FFB400" stroke-opacity="0.8" stroke-width="2"/>
<path d="M311.752 634.295C310.447 634.594 309.096 634.51 307.989 634.176C306.882 633.842 306.097 633.287 305.711 632.651C305.325 632.015 305.328 631.28 305.809 630.582C306.29 629.884 307.224 629.278 308.528 628.979C309.833 628.68 311.184 628.763 312.291 629.097C313.398 629.432 314.184 629.986 314.569 630.622C314.955 631.259 314.952 631.994 314.471 632.692C313.99 633.39 313.056 633.996 311.752 634.295Z" stroke="#FFB400" stroke-opacity="0.8" stroke-width="2"/>
<path d="M11.2011 4.99983C11.2011 7.03202 9.11276 8.99967 6.10054 8.99967C3.08832 8.99967 1 7.03202 1 4.99983C1 2.96765 3.08832 1 6.10054 1C9.11276 1 11.2011 2.96765 11.2011 4.99983Z" stroke="#FFB400" stroke-opacity="0.8" stroke-width="2"/>
<path d="M17.1778 325.513C17.1778 327.545 15.0894 329.513 12.0772 329.513C9.06501 329.513 6.97668 327.545 6.97668 325.513C6.97668 323.481 9.06501 321.513 12.0772 321.513C15.0894 321.513 17.1778 323.481 17.1778 325.513Z" stroke="#FFB400" stroke-opacity="0.8" stroke-width="2"/>
<path d="M410.251 352.736C408.947 353.035 407.595 352.952 406.488 352.618C405.381 352.283 404.596 351.729 404.21 351.093C403.824 350.456 403.828 349.721 404.309 349.023C404.789 348.325 405.723 347.719 407.027 347.42C408.332 347.121 409.684 347.205 410.79 347.539C411.897 347.873 412.683 348.428 413.069 349.064C413.454 349.7 413.451 350.435 412.97 351.133C412.489 351.831 411.556 352.438 410.251 352.736Z" stroke="#FFB400" stroke-opacity="0.8" stroke-width="2"/>
<rect x="0.416004" y="1.23074" width="9.80846" height="8.4604" transform="matrix(0.928269 0.371909 -0.512265 0.858827 658.348 24.8052)" stroke="#FFB400" stroke-opacity="0.8" stroke-width="2"/>
<rect x="0.416004" y="1.23074" width="9.80846" height="8.4604" transform="matrix(0.928269 0.371909 -0.512265 0.858827 664.325 345.318)" stroke="#FFB400" stroke-opacity="0.8" stroke-width="2"/>
<rect x="-1.12048" y="0.918156" width="5.45638" height="9.61325" transform="matrix(-0.123237 0.992377 -0.997242 -0.0742211 614.45 732.307)" stroke="#FFB400" stroke-opacity="0.8" stroke-width="2"/>
<rect x="0.416004" y="1.23074" width="9.80846" height="8.4604" transform="matrix(0.928269 0.371909 -0.512265 0.858827 260.566 189.388)" stroke="#0047FF" stroke-opacity="0.8" stroke-width="2"/>
<rect x="0.416004" y="1.23074" width="9.80846" height="8.4604" transform="matrix(0.928269 0.371909 -0.512265 0.858827 266.543 509.901)" stroke="#0047FF" stroke-opacity="0.8" stroke-width="2"/>
<rect x="-1.12048" y="0.918156" width="5.45638" height="9.61325" transform="matrix(-0.123237 0.992377 -0.997242 -0.0742211 297.653 543.976)" stroke="#0047FF" stroke-opacity="0.8" stroke-width="2"/>
<path d="M674.567 254.617L677.923 249.853L681.278 254.617H674.567Z" stroke="#FF2E00" stroke-opacity="0.8" stroke-width="2"/>
<path d="M680.544 575.13L683.899 570.367L687.255 575.13H680.544Z" stroke="#FF2E00" stroke-opacity="0.8" stroke-width="2"/>
<path d="M372.283 801.898L377.995 802.579L374.401 805.391L372.283 801.898Z" stroke="#FF2E00" stroke-opacity="0.8" stroke-width="2"/>
</svg>
