<svg width="14" height="14" viewBox="0 0 14 14" fill="none" xmlns="http://www.w3.org/2000/svg">
<rect width="14" height="14" fill="#474646"/>
<rect width="1440" height="1024" transform="translate(-709 -301)" fill="#D8CACA"/>
<path d="M11.6603 6.75017C11.6124 5.83195 11.2931 4.94861 10.7427 4.21209C10.575 4.3927 10.3957 4.56223 10.206 4.71959C9.62323 5.20366 8.97197 5.59878 8.27344 5.89209C8.37085 6.09625 8.4601 6.294 8.53885 6.48067V6.48242C8.56107 6.53458 8.58247 6.58709 8.60302 6.63992C9.48619 6.54075 10.4172 6.57692 11.3196 6.69884C11.4398 6.71517 11.5529 6.73267 11.6603 6.75017V6.75017ZM6.18569 2.40434C6.75417 3.20535 7.27839 4.03688 7.75602 4.89517C8.46944 4.614 9.05919 4.25934 9.53402 3.86442C9.69884 3.72858 9.854 3.58142 9.99835 3.424C9.15893 2.71801 8.09687 2.33161 7.00002 2.33317C6.72704 2.33298 6.45456 2.3566 6.18569 2.40375V2.40434ZM2.48094 5.83142C2.87832 5.82139 3.27523 5.79746 3.67094 5.75967C4.62739 5.67412 5.57568 5.5138 6.5071 5.28017C6.02032 4.43446 5.49476 3.61167 4.9321 2.81442C4.33111 3.11215 3.80117 3.53566 3.37825 4.05621C2.95532 4.57677 2.6493 5.18219 2.48094 5.83142ZM3.37344 9.93692C3.59977 9.60617 3.89727 9.234 4.29219 8.82917C5.14035 7.96 6.14135 7.28334 7.29985 6.91L7.33602 6.8995C7.23977 6.68717 7.14935 6.49759 7.05835 6.31909C5.98735 6.63117 4.85919 6.826 3.7351 6.92692C3.18677 6.9765 2.69502 6.99809 2.33335 7.00159C2.33232 8.0706 2.69986 9.10729 3.37402 9.93692H3.37344ZM8.75294 11.3253C8.52799 10.1908 8.20957 9.07694 7.80094 7.995C6.6331 8.41909 5.70269 9.03917 4.98344 9.77884C4.69317 10.0719 4.43558 10.3956 4.21519 10.7443C5.01949 11.3444 5.9965 11.6679 7.00002 11.6665C7.6008 11.6674 8.19606 11.5519 8.75294 11.3264V11.3253ZM9.84552 10.6982C10.7563 9.99803 11.3767 8.9865 11.5879 7.85734C11.3896 7.80775 11.1382 7.75817 10.8617 7.71967C10.2469 7.63115 9.62315 7.62467 9.00669 7.70042C9.3538 8.67974 9.63406 9.68148 9.84552 10.6988V10.6982ZM7.00002 12.8332C3.77827 12.8332 1.16669 10.2216 1.16669 6.99984C1.16669 3.77809 3.77827 1.1665 7.00002 1.1665C10.2218 1.1665 12.8334 3.77809 12.8334 6.99984C12.8334 10.2216 10.2218 12.8332 7.00002 12.8332Z" fill="#2B2B2B"/>
</svg>
