<svg width="14" height="14" viewBox="0 0 14 14" fill="none" xmlns="http://www.w3.org/2000/svg">
<rect width="14" height="14" fill="#474646"/>
<rect width="1440" height="1024" transform="translate(-709 -328)" fill="#D8CACA"/>
<path d="M12.5668 3.79066C12.8334 4.83016 12.8334 7.00016 12.8334 7.00016C12.8334 7.00016 12.8334 9.17016 12.5668 10.2097C12.4186 10.7842 11.9852 11.2363 11.4363 11.3892C10.4394 11.6668 7.00002 11.6668 7.00002 11.6668C7.00002 11.6668 3.56244 11.6668 2.56377 11.3892C2.01252 11.234 1.57969 10.7825 1.43327 10.2097C1.16669 9.17016 1.16669 7.00016 1.16669 7.00016C1.16669 7.00016 1.16669 4.83016 1.43327 3.79066C1.58144 3.21608 2.01485 2.764 2.56377 2.61116C3.56244 2.3335 7.00002 2.3335 7.00002 2.3335C7.00002 2.3335 10.4394 2.3335 11.4363 2.61116C11.9875 2.76633 12.4204 3.21783 12.5668 3.79066V3.79066ZM5.83335 9.04183L9.33335 7.00016L5.83335 4.9585V9.04183Z" fill="#1B1B1B"/>
</svg>
