<svg width="14" height="14" viewBox="0 0 14 14" fill="none" xmlns="http://www.w3.org/2000/svg">
<rect width="14" height="14" fill="#474646"/>
<rect width="1440" height="1024" transform="translate(-709 -220)" fill="#D8CACA"/>
<path d="M7.00002 1.1665C8.58494 1.1665 8.78269 1.17234 9.40452 1.2015C10.0258 1.23067 10.4487 1.32809 10.8209 1.47275C11.2059 1.62092 11.5302 1.82159 11.8545 2.14534C12.1511 2.43694 12.3807 2.78968 12.5271 3.179C12.6712 3.55059 12.7692 3.97409 12.7984 4.59534C12.8258 5.21717 12.8334 5.41492 12.8334 6.99984C12.8334 8.58475 12.8275 8.7825 12.7984 9.40434C12.7692 10.0256 12.6712 10.4485 12.5271 10.8207C12.3811 11.2102 12.1515 11.563 11.8545 11.8543C11.5628 12.1509 11.2101 12.3804 10.8209 12.5269C10.4493 12.671 10.0258 12.769 9.40452 12.7982C8.78269 12.8256 8.58494 12.8332 7.00002 12.8332C5.4151 12.8332 5.21735 12.8273 4.59552 12.7982C3.97427 12.769 3.55135 12.671 3.17919 12.5269C2.78971 12.3808 2.43691 12.1512 2.14552 11.8543C1.84884 11.5628 1.61931 11.21 1.47294 10.8207C1.32827 10.4491 1.23085 10.0256 1.20169 9.40434C1.17427 8.7825 1.16669 8.58475 1.16669 6.99984C1.16669 5.41492 1.17252 5.21717 1.20169 4.59534C1.23085 3.9735 1.32827 3.55117 1.47294 3.179C1.61891 2.78944 1.84849 2.43661 2.14552 2.14534C2.437 1.84856 2.78977 1.61901 3.17919 1.47275C3.55135 1.32809 3.97369 1.23067 4.59552 1.2015C5.21735 1.17409 5.4151 1.1665 7.00002 1.1665ZM7.00002 4.08317C6.22647 4.08317 5.48461 4.39046 4.93763 4.93744C4.39064 5.48442 4.08335 6.22629 4.08335 6.99984C4.08335 7.77339 4.39064 8.51525 4.93763 9.06223C5.48461 9.60921 6.22647 9.9165 7.00002 9.9165C7.77357 9.9165 8.51543 9.60921 9.06242 9.06223C9.6094 8.51525 9.91669 7.77339 9.91669 6.99984C9.91669 6.22629 9.6094 5.48442 9.06242 4.93744C8.51543 4.39046 7.77357 4.08317 7.00002 4.08317V4.08317ZM10.7917 3.93734C10.7917 3.74395 10.7149 3.55848 10.5781 3.42174C10.4414 3.28499 10.2559 3.20817 10.0625 3.20817C9.86913 3.20817 9.68367 3.28499 9.54692 3.42174C9.41018 3.55848 9.33335 3.74395 9.33335 3.93734C9.33335 4.13072 9.41018 4.31619 9.54692 4.45294C9.68367 4.58968 9.86913 4.6665 10.0625 4.6665C10.2559 4.6665 10.4414 4.58968 10.5781 4.45294C10.7149 4.31619 10.7917 4.13072 10.7917 3.93734ZM7.00002 5.24984C7.46415 5.24984 7.90927 5.43421 8.23746 5.7624C8.56565 6.09059 8.75002 6.53571 8.75002 6.99984C8.75002 7.46397 8.56565 7.90909 8.23746 8.23727C7.90927 8.56546 7.46415 8.74984 7.00002 8.74984C6.53589 8.74984 6.09077 8.56546 5.76258 8.23727C5.43439 7.90909 5.25002 7.46397 5.25002 6.99984C5.25002 6.53571 5.43439 6.09059 5.76258 5.7624C6.09077 5.43421 6.53589 5.24984 7.00002 5.24984V5.24984Z" fill="#1B1B1B"/>
</svg>
