<svg width="14" height="14" viewBox="0 0 14 14" fill="none" xmlns="http://www.w3.org/2000/svg">
<rect width="14" height="14" fill="#474646"/>
<rect width="1440" height="1024" transform="translate(-709 -247)" fill="#D8CACA"/>
<path d="M12.9279 3.29953C12.4825 3.49652 12.0103 3.62589 11.5267 3.68337C12.0364 3.37854 12.4179 2.89879 12.6 2.33353C12.1217 2.6182 11.5973 2.8177 11.0507 2.92562C10.6836 2.53279 10.1969 2.27226 9.66642 2.18454C9.13594 2.09682 8.59133 2.18682 8.11727 2.44055C7.64321 2.69428 7.26626 3.09752 7.04501 3.58758C6.82377 4.07764 6.77063 4.62707 6.89386 5.15045C5.92384 5.10183 4.97489 4.84976 4.10862 4.41059C3.24234 3.97142 2.47811 3.35498 1.86553 2.60128C1.6487 2.97371 1.53475 3.39708 1.53536 3.82803C1.53536 4.67387 1.96586 5.42112 2.62036 5.85862C2.23304 5.84642 1.85423 5.74182 1.51553 5.55354V5.58387C1.51565 6.14719 1.71058 6.69314 2.06728 7.12915C2.42397 7.56516 2.92048 7.8644 3.47261 7.97612C3.11306 8.07356 2.73604 8.08792 2.37011 8.01812C2.52579 8.503 2.8292 8.92707 3.23788 9.23093C3.64655 9.5348 4.14002 9.70325 4.6492 9.7127C4.14314 10.1101 3.56372 10.4039 2.94404 10.5773C2.32437 10.7507 1.67661 10.8002 1.03778 10.723C2.15294 11.4402 3.45109 11.8209 4.77695 11.8197C9.26453 11.8197 11.7186 8.10212 11.7186 4.87804C11.7186 4.77304 11.7157 4.66687 11.711 4.56303C12.1887 4.2178 12.601 3.79013 12.9284 3.30012L12.9279 3.29953Z" fill="#1B1B1B"/>
</svg>
