<svg width="37" height="32" viewBox="0 0 37 32" fill="none" xmlns="http://www.w3.org/2000/svg">
<rect width="37" height="32" fill="#474646"/>
<rect width="1440" height="1024" transform="translate(-586 -312)" fill="#D8CACA"/>
<ellipse cx="18.2393" cy="15.8225" rx="18.2393" ry="15.8225" fill="#FFB400"/>
<path d="M18 11C18.3956 11 18.7822 10.8827 19.1111 10.6629C19.44 10.4432 19.6964 10.1308 19.8478 9.76537C19.9991 9.39992 20.0387 8.99778 19.9616 8.60982C19.8844 8.22186 19.6939 7.86549 19.4142 7.58579C19.1345 7.30608 18.7781 7.1156 18.3902 7.03843C18.0022 6.96126 17.6001 7.00087 17.2346 7.15224C16.8692 7.30362 16.5568 7.55996 16.3371 7.88886C16.1173 8.21776 16 8.60444 16 9C16 9.53043 16.2107 10.0391 16.5858 10.4142C16.9609 10.7893 17.4696 11 18 11ZM18 21C17.6044 21 17.2178 21.1173 16.8889 21.3371C16.56 21.5568 16.3036 21.8692 16.1522 22.2346C16.0009 22.6001 15.9613 23.0022 16.0384 23.3902C16.1156 23.7781 16.3061 24.1345 16.5858 24.4142C16.8655 24.6939 17.2219 24.8844 17.6098 24.9616C17.9978 25.0387 18.3999 24.9991 18.7654 24.8478C19.1308 24.6964 19.4432 24.44 19.6629 24.1111C19.8827 23.7822 20 23.3956 20 23C20 22.4696 19.7893 21.9609 19.4142 21.5858C19.0391 21.2107 18.5304 21 18 21ZM18 14C17.6044 14 17.2178 14.1173 16.8889 14.3371C16.56 14.5568 16.3036 14.8692 16.1522 15.2346C16.0009 15.6001 15.9613 16.0022 16.0384 16.3902C16.1156 16.7781 16.3061 17.1345 16.5858 17.4142C16.8655 17.6939 17.2219 17.8844 17.6098 17.9616C17.9978 18.0387 18.3999 17.9991 18.7654 17.8478C19.1308 17.6964 19.4432 17.44 19.6629 17.1111C19.8827 16.7822 20 16.3956 20 16C20 15.4696 19.7893 14.9609 19.4142 14.5858C19.0391 14.2107 18.5304 14 18 14Z" fill="black"/>
</svg>
