<svg width="43" height="56" viewBox="0 0 43 56" fill="none" xmlns="http://www.w3.org/2000/svg">
<rect width="43" height="56" fill="#474646"/>
<rect width="1440" height="1024" transform="translate(-456 -275)" fill="#D8CACA"/>
<path d="M28.6329 8.7725C29.6095 7.57427 30.3542 6.18247 30.8241 4.67703C31.294 3.17158 31.48 1.58215 31.3713 0C28.373 0.257639 25.5898 1.75878 23.6213 4.18C22.6786 5.34043 21.9642 6.69042 21.5205 8.15002C21.0768 9.60962 20.9127 11.1492 21.0379 12.6775C22.5005 12.6905 23.9462 12.345 25.2632 11.6679C26.5802 10.9907 27.7332 10 28.6329 8.7725V8.7725ZM35.1429 29.2325C35.1602 27.1253 35.6817 25.0575 36.658 23.2243C37.6343 21.3911 39.0333 19.853 40.7229 18.755C39.6566 17.1194 38.2469 15.7708 36.6057 14.8161C34.9645 13.8614 33.1369 13.3269 31.2679 13.255C27.2379 12.815 23.5179 15.7575 21.3738 15.7575C19.2296 15.7575 16.2071 13.31 12.8488 13.365C10.6533 13.442 8.51397 14.1234 6.63957 15.3428C4.76518 16.5621 3.21965 18.2778 2.15375 20.3225C-2.39291 28.7375 0.991252 41.25 5.53792 48.0425C7.60458 51.37 10.1879 55.1375 13.5979 55C17.0079 54.8625 18.1187 52.745 22.0712 52.745C26.0237 52.745 27.2379 55 30.5962 54.9175C33.9546 54.835 36.3313 51.5075 38.5013 48.18C40.0384 45.7642 41.2392 43.1244 42.0663 40.3425C40.0189 39.413 38.2722 37.8655 37.0418 35.8911C35.8114 33.9167 35.1512 31.6018 35.1429 29.2325V29.2325Z" fill="#FFB400"/>
</svg>
