<svg width="57" height="62" viewBox="0 0 57 62" fill="none" xmlns="http://www.w3.org/2000/svg">
<rect width="57" height="62" fill="#474646"/>
<rect width="1440" height="1024" transform="translate(-446 -185)" fill="#D8CACA"/>
<path d="M37.6216 5.60775L40.5642 0.79778C40.6019 0.736071 40.6259 0.668229 40.6347 0.598127C40.6436 0.528024 40.637 0.457034 40.6156 0.38921C40.5941 0.321386 40.5581 0.258056 40.5097 0.202836C40.4612 0.147616 40.4012 0.101587 40.3331 0.0673775C40.1955 -0.00171136 40.0333 -0.0184632 39.8821 0.0208074C39.731 0.0600781 39.6032 0.152154 39.527 0.27678L36.5518 5.14006C34.0133 4.13175 31.2717 3.61117 28.5 3.61117C25.7284 3.61117 22.9868 4.13175 20.4483 5.14006L17.473 0.27678C17.3968 0.152154 17.269 0.0600781 17.1178 0.0208074C16.9667 -0.0184632 16.8045 -0.00171136 16.6669 0.0673775C16.5294 0.136466 16.4278 0.252233 16.3844 0.38921C16.3411 0.526187 16.3596 0.673154 16.4358 0.79778L19.3785 5.60778C16.5774 6.85881 14.2107 8.78464 12.5379 11.174C10.8652 13.5634 9.95099 16.3241 9.89565 19.1532H47.1045C47.0491 16.3241 46.135 13.5634 44.4622 11.174C42.7894 8.78461 40.4227 6.85878 37.6216 5.60775ZM19.9132 12.9844C19.6059 12.9844 19.3055 12.9019 19.05 12.7472C18.7945 12.5925 18.5954 12.3726 18.4778 12.1154C18.3602 11.8581 18.3294 11.5751 18.3894 11.302C18.4493 11.0289 18.5973 10.7781 18.8146 10.5812C19.0319 10.3843 19.3087 10.2502 19.6101 10.1959C19.9115 10.1416 20.2239 10.1695 20.5078 10.276C20.7917 10.3826 21.0344 10.563 21.2051 10.7945C21.3758 11.026 21.4669 11.2982 21.4669 11.5766C21.4665 11.9499 21.3026 12.3077 21.0113 12.5716C20.7201 12.8355 20.3251 12.984 19.9132 12.9844ZM37.0868 12.9844C36.7795 12.9844 36.4791 12.9019 36.2236 12.7472C35.9681 12.5925 35.7689 12.3726 35.6513 12.1154C35.5337 11.8581 35.503 11.5751 35.5629 11.302C35.6229 11.0289 35.7709 10.7781 35.9881 10.5812C36.2054 10.3843 36.4823 10.2502 36.7837 10.1959C37.0851 10.1416 37.3975 10.1695 37.6814 10.276C37.9653 10.3826 38.2079 10.563 38.3787 10.7945C38.5494 11.026 38.6405 11.2982 38.6405 11.5766C38.64 11.9499 38.4762 12.3077 38.1849 12.5716C37.8936 12.8355 37.4987 12.984 37.0868 12.9844ZM9.89538 44.9205C9.89538 46.0014 10.3693 47.038 11.2128 47.8022C12.0563 48.5665 13.2003 48.9959 14.3932 48.9959H17.378V57.3319C17.3765 57.829 17.4833 58.3215 17.6922 58.7812C17.9012 59.2409 18.2082 59.6587 18.5956 60.0107C18.983 60.3627 19.4433 60.642 19.9501 60.8325C20.4569 61.0231 21.0001 61.1212 21.5488 61.1212C22.0975 61.1212 22.6407 61.0231 23.1475 60.8325C23.6543 60.642 24.1146 60.3627 24.502 60.0107C24.8894 59.6587 25.1964 59.2409 25.4054 58.7812C25.6143 58.3215 25.7211 57.829 25.7196 57.3319V48.9959H31.2804V57.3319C31.2789 57.829 31.3857 58.3215 31.5946 58.7812C31.8036 59.2409 32.1106 59.6587 32.498 60.0107C32.8854 60.3627 33.3457 60.642 33.8525 60.8325C34.3593 61.0231 34.9025 61.1212 35.4512 61.1212C35.9999 61.1212 36.5431 61.0231 37.0499 60.8325C37.5567 60.642 38.017 60.3627 38.4044 60.0107C38.7918 59.6587 39.0988 59.2409 39.3078 58.7812C39.5167 58.3215 39.6235 57.829 39.622 57.3319V48.9959H42.6069C43.7998 48.9959 44.9439 48.5665 45.7874 47.8022C46.6309 47.038 47.1047 46.0014 47.1047 44.9205V20.4868H9.89538V44.9205ZM4.17079 19.8384C3.06501 19.8396 2.00489 20.2381 1.22299 20.9466C0.441085 21.655 0.00126491 22.6156 1.533e-05 23.6175V39.3632C-0.00147221 39.8604 0.105311 40.3529 0.314246 40.8125C0.523182 41.2722 0.830164 41.69 1.21761 42.042C1.60505 42.394 2.06534 42.6733 2.5721 42.8639C3.07886 43.0544 3.62214 43.1525 4.17081 43.1525C4.71948 43.1525 5.26276 43.0544 5.76952 42.8639C6.27628 42.6733 6.73657 42.394 7.12401 42.042C7.51145 41.69 7.81843 41.2722 8.02737 40.8125C8.23631 40.3529 8.34309 39.8604 8.3416 39.3632V23.6175C8.34035 22.6156 7.90053 21.655 7.11862 20.9466C6.33671 20.2381 5.27658 19.8396 4.17079 19.8384ZM52.8292 19.8384C51.7234 19.8396 50.6633 20.2381 49.8814 20.9466C49.0995 21.655 48.6596 22.6156 48.6584 23.6175V39.3632C48.6569 39.8604 48.7637 40.3529 48.9726 40.8125C49.1816 41.2722 49.4885 41.69 49.876 42.042C50.2634 42.394 50.7237 42.6733 51.2305 42.8639C51.7372 43.0544 52.2805 43.1525 52.8292 43.1525C53.3779 43.1525 53.9211 43.0544 54.4279 42.8639C54.9347 42.6733 55.395 42.394 55.7824 42.042C56.1698 41.69 56.4768 41.2722 56.6858 40.8125C56.8947 40.3529 57.0015 39.8604 57 39.3632V23.6175C56.9987 22.6156 56.5589 21.655 55.777 20.9466C54.9951 20.2381 53.935 19.8396 52.8292 19.8384Z" fill="#FFB400"/>
</svg>
